# xmcd CD database file
#
# Track frame offsets:
#	150
#	12385
#	23099
#	37834
#	48875
#	62610
#	75499
#	86723
#	98895
#	111796
#	125066
#	136356
#	151491
#	167726
#	179861
#	191456
#
# Disc length: 2680 seconds
#
# Revision: 3
# Processed by: cddbd v1.5.2PL0 Copyright (c) Steve Scherf et al.
# Submitted via: CDex 1.51
#
DISCID=ce0a7610
DTITLE=Various Artist - Best Of Country - CD2
DYEAR=2006
DGENRE=Country
TTITLE0=Reuben James - Kenny Rogers
TTITLE1=It Wasn't God Who Made Honkey Tonk Angles - Dolly Parton
TTITLE2=Crying In The Rain - Tammy Wynett
TTITLE3=Big Mamou - Waylon Jennings
TTITLE4=Home Is Where You're Happy - Willie Nelson
TTITLE5=Sunshine - Billie Jo Spears
TTITLE6=Angel Wing - Conway Twitty
TTITLE7=Lonely Side Of Town - Kitty Wells
TTITLE8=Poor Boy - Woody Guthrie
TTITLE9=Rose Garden - Lynn Anderson
TTITLE10=Stand By Your Man - Tammy Wynette
TTITLE11=Ain't Gonna Be Treated This Way - Woody Guthrie
TTITLE12=Green Green Gras Of Home - Don Gibson
TTITLE13=Don't Think Twice It's Allright - Waylon Jennings
TTITLE14=Letter To Heaven - Dolly Parton
TTITLE15=Half A Man - Willie Nelson
EXTD=YEAR: 2006
EXTT0=
EXTT1=
EXTT2=
EXTT3=
EXTT4=
EXTT5=
EXTT6=
EXTT7=
EXTT8=
EXTT9=
EXTT10=
EXTT11=
EXTT12=
EXTT13=
EXTT14=
EXTT15=
PLAYORDER=
